<svg width="105" height="50" viewBox="0 0 105 50" fill="none" xmlns="http://www.w3.org/2000/svg">
<rect y="50" width="50" height="105" rx="25" transform="rotate(-90 0 50)" fill="black" fill-opacity="0.3"/>
<path d="M22.416 17.2V34H18.528V20.32H15.168V17.2H22.416ZM32.5344 34.288C31.1424 34.288 29.9024 33.944 28.8144 33.256C27.7264 32.568 26.8704 31.576 26.2464 30.28C25.6384 28.968 25.3344 27.408 25.3344 25.6C25.3344 23.792 25.6384 22.24 26.2464 20.944C26.8704 19.632 27.7264 18.632 28.8144 17.944C29.9024 17.256 31.1424 16.912 32.5344 16.912C33.9264 16.912 35.1664 17.256 36.2544 17.944C37.3424 18.632 38.1904 19.632 38.7984 20.944C39.4224 22.24 39.7344 23.792 39.7344 25.6C39.7344 27.408 39.4224 28.968 38.7984 30.28C38.1904 31.576 37.3424 32.568 36.2544 33.256C35.1664 33.944 33.9264 34.288 32.5344 34.288ZM32.5344 31C33.5584 31 34.3584 30.56 34.9344 29.68C35.5264 28.8 35.8224 27.44 35.8224 25.6C35.8224 23.76 35.5264 22.4 34.9344 21.52C34.3584 20.64 33.5584 20.2 32.5344 20.2C31.5264 20.2 30.7264 20.64 30.1344 21.52C29.5584 22.4 29.2704 23.76 29.2704 25.6C29.2704 27.44 29.5584 28.8 30.1344 29.68C30.7264 30.56 31.5264 31 32.5344 31ZM53.1195 25.168C53.9515 25.584 54.5835 26.128 55.0155 26.8C55.4635 27.472 55.6875 28.248 55.6875 29.128C55.6875 30.168 55.3915 31.08 54.7995 31.864C54.2075 32.632 53.3755 33.232 52.3035 33.664C51.2315 34.08 49.9915 34.288 48.5835 34.288C47.1755 34.288 45.9355 34.08 44.8635 33.664C43.8075 33.232 42.9835 32.632 42.3915 31.864C41.8155 31.08 41.5275 30.168 41.5275 29.128C41.5275 28.248 41.7435 27.472 42.1755 26.8C42.6235 26.128 43.2555 25.584 44.0715 25.168C43.4475 24.784 42.9675 24.304 42.6315 23.728C42.2955 23.136 42.1275 22.464 42.1275 21.712C42.1275 20.736 42.3995 19.888 42.9435 19.168C43.4875 18.448 44.2475 17.896 45.2235 17.512C46.1995 17.112 47.3195 16.912 48.5835 16.912C49.8635 16.912 50.9915 17.112 51.9675 17.512C52.9595 17.896 53.7275 18.448 54.2715 19.168C54.8155 19.888 55.0875 20.736 55.0875 21.712C55.0875 22.464 54.9195 23.136 54.5835 23.728C54.2475 24.304 53.7595 24.784 53.1195 25.168ZM48.5835 19.768C47.7995 19.768 47.1675 19.96 46.6875 20.344C46.2235 20.712 45.9915 21.224 45.9915 21.88C45.9915 22.52 46.2235 23.024 46.6875 23.392C47.1515 23.76 47.7835 23.944 48.5835 23.944C49.3835 23.944 50.0235 23.76 50.5035 23.392C50.9835 23.024 51.2235 22.52 51.2235 21.88C51.2235 21.224 50.9835 20.712 50.5035 20.344C50.0235 19.96 49.3835 19.768 48.5835 19.768ZM48.5835 31.432C49.5595 31.432 50.3275 31.216 50.8875 30.784C51.4635 30.336 51.7515 29.744 51.7515 29.008C51.7515 28.272 51.4635 27.688 50.8875 27.256C50.3275 26.824 49.5595 26.608 48.5835 26.608C47.6235 26.608 46.8635 26.824 46.3035 27.256C45.7435 27.688 45.4635 28.272 45.4635 29.008C45.4635 29.76 45.7435 30.352 46.3035 30.784C46.8635 31.216 47.6235 31.432 48.5835 31.432ZM64.6673 34.288C63.2753 34.288 62.0353 33.944 60.9473 33.256C59.8593 32.568 59.0033 31.576 58.3793 30.28C57.7713 28.968 57.4673 27.408 57.4673 25.6C57.4673 23.792 57.7713 22.24 58.3793 20.944C59.0033 19.632 59.8593 18.632 60.9473 17.944C62.0353 17.256 63.2753 16.912 64.6673 16.912C66.0593 16.912 67.2993 17.256 68.3873 17.944C69.4753 18.632 70.3233 19.632 70.9313 20.944C71.5553 22.24 71.8673 23.792 71.8673 25.6C71.8673 27.408 71.5553 28.968 70.9313 30.28C70.3233 31.576 69.4753 32.568 68.3873 33.256C67.2993 33.944 66.0593 34.288 64.6673 34.288ZM64.6673 31C65.6913 31 66.4913 30.56 67.0673 29.68C67.6593 28.8 67.9553 27.44 67.9553 25.6C67.9553 23.76 67.6593 22.4 67.0673 21.52C66.4913 20.64 65.6913 20.2 64.6673 20.2C63.6593 20.2 62.8593 20.64 62.2673 21.52C61.6913 22.4 61.4033 23.76 61.4033 25.6C61.4033 27.44 61.6913 28.8 62.2673 29.68C62.8593 30.56 63.6593 31 64.6673 31ZM82.1803 20.896C83.3803 20.896 84.4683 21.176 85.4443 21.736C86.4363 22.28 87.2123 23.056 87.7723 24.064C88.3323 25.056 88.6123 26.216 88.6123 27.544C88.6123 28.872 88.3323 30.04 87.7723 31.048C87.2123 32.04 86.4363 32.816 85.4443 33.376C84.4683 33.92 83.3803 34.192 82.1803 34.192C80.5323 34.192 79.2363 33.672 78.2923 32.632V38.656H74.5483V21.088H78.1243V22.576C79.0523 21.456 80.4043 20.896 82.1803 20.896ZM81.5323 31.12C82.4923 31.12 83.2763 30.8 83.8843 30.16C84.5083 29.504 84.8203 28.632 84.8203 27.544C84.8203 26.456 84.5083 25.592 83.8843 24.952C83.2763 24.296 82.4923 23.968 81.5323 23.968C80.5723 23.968 79.7803 24.296 79.1563 24.952C78.5483 25.592 78.2443 26.456 78.2443 27.544C78.2443 28.632 78.5483 29.504 79.1563 30.16C79.7803 30.8 80.5723 31.12 81.5323 31.12Z" fill="white"/>
</svg>
