<svg width="102" height="50" viewBox="0 0 102 50" fill="none" xmlns="http://www.w3.org/2000/svg">
<rect y="50" width="50" height="102" rx="25" transform="rotate(-90 0 50)" fill="#00DB59"/>
<rect y="50" width="50" height="102" rx="25" transform="rotate(-90 0 50)" fill="black" fill-opacity="0.2"/>
<path d="M28.056 30.4H20.256L18.768 34H14.784L22.272 17.2H26.112L33.624 34H29.544L28.056 30.4ZM26.832 27.448L24.168 21.016L21.504 27.448H26.832ZM42.4794 34.288C40.0794 34.288 38.2074 33.624 36.8634 32.296C35.5354 30.968 34.8714 29.072 34.8714 26.608V17.2H38.7594V26.464C38.7594 29.472 40.0074 30.976 42.5034 30.976C43.7194 30.976 44.6474 30.616 45.2874 29.896C45.9274 29.16 46.2474 28.016 46.2474 26.464V17.2H50.0874V26.608C50.0874 29.072 49.4154 30.968 48.0714 32.296C46.7434 33.624 44.8794 34.288 42.4794 34.288ZM57.1283 20.368H51.7523V17.2H66.3923V20.368H61.0163V34H57.1283V20.368ZM76.3858 34.288C74.6418 34.288 73.0658 33.912 71.6578 33.16C70.2658 32.408 69.1698 31.376 68.3698 30.064C67.5858 28.736 67.1938 27.248 67.1938 25.6C67.1938 23.952 67.5858 22.472 68.3698 21.16C69.1698 19.832 70.2658 18.792 71.6578 18.04C73.0658 17.288 74.6418 16.912 76.3858 16.912C78.1298 16.912 79.6978 17.288 81.0898 18.04C82.4818 18.792 83.5778 19.832 84.3778 21.16C85.1778 22.472 85.5778 23.952 85.5778 25.6C85.5778 27.248 85.1778 28.736 84.3778 30.064C83.5778 31.376 82.4818 32.408 81.0898 33.16C79.6978 33.912 78.1298 34.288 76.3858 34.288ZM76.3858 30.976C77.3778 30.976 78.2738 30.752 79.0738 30.304C79.8738 29.84 80.4978 29.2 80.9458 28.384C81.4098 27.568 81.6418 26.64 81.6418 25.6C81.6418 24.56 81.4098 23.632 80.9458 22.816C80.4978 22 79.8738 21.368 79.0738 20.92C78.2738 20.456 77.3778 20.224 76.3858 20.224C75.3938 20.224 74.4978 20.456 73.6978 20.92C72.8978 21.368 72.2658 22 71.8018 22.816C71.3538 23.632 71.1298 24.56 71.1298 25.6C71.1298 26.64 71.3538 27.568 71.8018 28.384C72.2658 29.2 72.8978 29.84 73.6978 30.304C74.4978 30.752 75.3938 30.976 76.3858 30.976Z" fill="white"/>
</svg>
