<svg width="90" height="90" viewBox="0 0 90 90" fill="none" xmlns="http://www.w3.org/2000/svg">
<rect width="90" height="90" rx="45" fill="black" fill-opacity="0.3"/>
<path fill-rule="evenodd" clip-rule="evenodd" d="M45.9831 31.1758C47.9186 31.1758 49.4877 29.6068 49.4877 27.6712C49.4877 25.7357 47.9186 24.1666 45.9831 24.1666C44.0475 24.1666 42.4785 25.7357 42.4785 27.6712C42.4785 29.6068 44.0475 31.1758 45.9831 31.1758ZM42.9038 31.7016L35.5191 32.002C34.5678 32.002 33.7067 32.3024 33.4664 34.1047L32.5402 40.413C32.415 41.0972 32.5101 42.5058 33.892 42.666C35.6192 42.8662 35.8195 41.6146 35.9697 40.6383C36.0898 39.8573 36.5538 36.8583 36.7707 35.4565L40.3504 35.3063L39.3992 42.8913C39.3742 43.7758 39.7246 45.7801 41.3267 46.7213C41.1865 48.4435 40.9178 53.0796 40.801 55.1824L37.5217 63.243C37.2797 63.802 37.0811 65.0603 38.2226 65.6211C39.6495 66.322 40.5257 65.1705 41.0263 63.8688C41.4269 62.8274 43.1291 58.5785 43.9301 56.5842C44.0052 56.434 44.2005 55.8232 44.3807 54.5816C44.561 53.34 45.0733 49.2579 45.3069 47.3721L50.689 47.1468L48.8115 53.5803C48.5612 54.1727 48.366 55.5028 49.5876 56.0836C51.1146 56.8095 51.9406 55.1824 52.191 54.3813C52.3912 53.7405 53.9099 48.4402 54.6442 45.8702C54.8778 45.1192 54.7894 43.5872 52.5665 43.467C50.3435 43.3469 47.2845 43.2668 46.0329 43.2417L47.0342 36.8333L50.2134 39.7121C50.8475 40.3963 52.3862 41.3542 53.4676 39.7121C54.5491 38.0699 56.8054 34.6221 57.7983 33.1034C58.0987 32.536 58.4492 31.256 57.4479 30.6752C56.1962 29.9493 55.3201 30.4249 54.6442 31.4763C54.1035 32.3174 52.3829 35.0143 51.5902 36.2576L48.1607 33.1034C47.8102 32.5791 46.2682 31.5647 42.9038 31.7016Z" fill="#24FFFE"/>
</svg>
