<svg width="172" height="74" viewBox="0 0 172 74" fill="none" xmlns="http://www.w3.org/2000/svg">
<path fill-rule="evenodd" clip-rule="evenodd" d="M8 0C3.58172 0 0 3.58172 0 8V56C0 60.4183 3.58173 64 8 64C9.28601 64 10.096 65.3849 9.4655 66.5058L8.34792 68.4926C6.84805 71.159 9.81482 74.1058 12.4711 72.588L25.8249 64.9572C26.9226 64.3299 28.165 64 29.4294 64H164C168.418 64 172 60.4183 172 56V8C172 3.58172 168.418 0 164 0H8Z" fill="url(#paint0_linear_13798_9192)"/>
<path d="M16.9278 15.8H25.6478V17.512H18.9758V20.264H22.2878C23.6318 20.264 24.6504 20.5467 25.3438 21.112C26.0478 21.6667 26.3998 22.472 26.3998 23.528C26.3998 24.6373 26.0158 25.496 25.2478 26.104C24.4798 26.7013 23.3864 27 21.9678 27H16.9278V15.8ZM21.8558 25.4C22.6558 25.4 23.2638 25.2453 23.6798 24.936C24.0958 24.6267 24.3038 24.1787 24.3038 23.592C24.3038 22.44 23.4878 21.864 21.8558 21.864H18.9758V25.4H21.8558ZM36.4534 22.776C36.4534 22.9147 36.4427 23.112 36.4214 23.368H29.7174C29.8347 23.9973 30.1387 24.4987 30.6294 24.872C31.1307 25.2347 31.7494 25.416 32.4854 25.416C33.424 25.416 34.1974 25.1067 34.8054 24.488L35.8774 25.72C35.4934 26.1787 35.008 26.5253 34.4214 26.76C33.8347 26.9947 33.1734 27.112 32.4374 27.112C31.4987 27.112 30.672 26.9253 29.9574 26.552C29.2427 26.1787 28.688 25.6613 28.2934 25C27.9094 24.328 27.7174 23.5707 27.7174 22.728C27.7174 21.896 27.904 21.1493 28.2774 20.488C28.6614 19.816 29.1894 19.2933 29.8614 18.92C30.5334 18.5467 31.2907 18.36 32.1334 18.36C32.9654 18.36 33.7067 18.5467 34.3574 18.92C35.0187 19.2827 35.5307 19.8 35.8934 20.472C36.2667 21.1333 36.4534 21.9013 36.4534 22.776ZM32.1334 19.96C31.4934 19.96 30.9494 20.152 30.5014 20.536C30.064 20.9093 29.7974 21.4107 29.7014 22.04H34.5494C34.464 21.4213 34.2027 20.92 33.7654 20.536C33.328 20.152 32.784 19.96 32.1334 19.96ZM42.5289 27.112C41.6435 27.112 40.8489 26.9253 40.1449 26.552C39.4409 26.1787 38.8915 25.6613 38.4969 25C38.1022 24.328 37.9049 23.5707 37.9049 22.728C37.9049 21.8853 38.1022 21.1333 38.4969 20.472C38.8915 19.8107 39.4355 19.2933 40.1289 18.92C40.8329 18.5467 41.6329 18.36 42.5289 18.36C43.3715 18.36 44.1075 18.5307 44.7369 18.872C45.3769 19.2133 45.8569 19.704 46.1769 20.344L44.6409 21.24C44.3955 20.8453 44.0862 20.552 43.7129 20.36C43.3502 20.1573 42.9502 20.056 42.5129 20.056C41.7662 20.056 41.1475 20.3013 40.6569 20.792C40.1662 21.272 39.9209 21.9173 39.9209 22.728C39.9209 23.5387 40.1609 24.1893 40.6409 24.68C41.1315 25.16 41.7555 25.4 42.5129 25.4C42.9502 25.4 43.3502 25.304 43.7129 25.112C44.0862 24.9093 44.3955 24.6107 44.6409 24.216L46.1769 25.112C45.8462 25.752 45.3609 26.248 44.7209 26.6C44.0915 26.9413 43.3609 27.112 42.5289 27.112ZM56.1298 18.456V27H54.1458V20.152H49.9378V27H47.9378V18.456H56.1298ZM66.5724 18.456V27H64.5724V20.152H61.3724L61.2924 21.848C61.239 22.9787 61.1324 23.928 60.9724 24.696C60.823 25.4533 60.5617 26.056 60.1884 26.504C59.8257 26.9413 59.3244 27.16 58.6844 27.16C58.3857 27.16 58.0177 27.1013 57.5804 26.984L57.6764 25.304C57.8257 25.336 57.9537 25.352 58.0604 25.352C58.4657 25.352 58.7697 25.192 58.9724 24.872C59.175 24.5413 59.303 24.152 59.3564 23.704C59.4204 23.2453 59.4737 22.5947 59.5164 21.752L59.6604 18.456H66.5724ZM72.4499 18.36C73.7085 18.36 74.6685 18.664 75.3299 19.272C76.0019 19.8693 76.3379 20.776 76.3379 21.992V27H74.4499V25.96C74.2045 26.3333 73.8525 26.6213 73.3939 26.824C72.9459 27.016 72.4019 27.112 71.7619 27.112C71.1219 27.112 70.5619 27.0053 70.0819 26.792C69.6019 26.568 69.2285 26.264 68.9619 25.88C68.7059 25.4853 68.5779 25.0427 68.5779 24.552C68.5779 23.784 68.8605 23.1707 69.4259 22.712C70.0019 22.2427 70.9032 22.008 72.1299 22.008H74.3379V21.88C74.3379 21.2827 74.1565 20.824 73.7939 20.504C73.4419 20.184 72.9139 20.024 72.2099 20.024C71.7299 20.024 71.2552 20.0987 70.7859 20.248C70.3272 20.3973 69.9379 20.6053 69.6179 20.872L68.8339 19.416C69.2819 19.0747 69.8205 18.8133 70.4499 18.632C71.0792 18.4507 71.7459 18.36 72.4499 18.36ZM72.1779 25.656C72.6792 25.656 73.1219 25.544 73.5059 25.32C73.9005 25.0853 74.1779 24.7547 74.3379 24.328V23.336H72.2739C71.1219 23.336 70.5459 23.7147 70.5459 24.472C70.5459 24.8347 70.6899 25.1227 70.9779 25.336C71.2659 25.5493 71.6659 25.656 72.1779 25.656ZM85.5808 20.152H82.5888V27H80.5888V20.152H77.5808V18.456H85.5808V20.152ZM87.0315 18.456H89.0315V21.928H93.3355V18.456H95.3355V27H93.3355V23.624H89.0315V27H87.0315V18.456ZM101.824 27.112C100.96 27.112 100.181 26.9253 99.4879 26.552C98.7945 26.1787 98.2505 25.6613 97.8559 25C97.4719 24.328 97.2799 23.5707 97.2799 22.728C97.2799 21.8853 97.4719 21.1333 97.8559 20.472C98.2505 19.8107 98.7945 19.2933 99.4879 18.92C100.181 18.5467 100.96 18.36 101.824 18.36C102.699 18.36 103.483 18.5467 104.176 18.92C104.869 19.2933 105.408 19.8107 105.792 20.472C106.187 21.1333 106.384 21.8853 106.384 22.728C106.384 23.5707 106.187 24.328 105.792 25C105.408 25.6613 104.869 26.1787 104.176 26.552C103.483 26.9253 102.699 27.112 101.824 27.112ZM101.824 25.4C102.56 25.4 103.168 25.1547 103.648 24.664C104.128 24.1733 104.368 23.528 104.368 22.728C104.368 21.928 104.128 21.2827 103.648 20.792C103.168 20.3013 102.56 20.056 101.824 20.056C101.088 20.056 100.48 20.3013 99.9999 20.792C99.5305 21.2827 99.2959 21.928 99.2959 22.728C99.2959 23.528 99.5305 24.1733 99.9999 24.664C100.48 25.1547 101.088 25.4 101.824 25.4ZM112.782 18.456H114.782V24.088L119.502 18.456H121.326V27H119.326V21.368L114.622 27H112.782V18.456ZM133.062 18.872C133.872 18.872 134.587 19.048 135.206 19.4C135.824 19.7413 136.304 20.2213 136.646 20.84C136.998 21.4587 137.174 22.168 137.174 22.968C137.174 23.7893 136.982 24.52 136.598 25.16C136.214 25.7893 135.675 26.28 134.982 26.632C134.288 26.984 133.499 27.16 132.614 27.16C131.131 27.16 129.984 26.6693 129.174 25.688C128.363 24.7067 127.958 23.2933 127.958 21.448C127.958 19.7307 128.326 18.3707 129.062 17.368C129.798 16.3653 130.923 15.704 132.438 15.384L136.406 14.536L136.694 16.328L133.094 17.064C132.059 17.2773 131.286 17.64 130.774 18.152C130.262 18.664 129.963 19.384 129.878 20.312C130.262 19.8533 130.726 19.5013 131.27 19.256C131.814 19 132.411 18.872 133.062 18.872ZM132.662 25.544C133.398 25.544 133.99 25.3093 134.438 24.84C134.896 24.36 135.126 23.752 135.126 23.016C135.126 22.28 134.896 21.688 134.438 21.24C133.99 20.792 133.398 20.568 132.662 20.568C131.915 20.568 131.312 20.792 130.854 21.24C130.395 21.688 130.166 22.28 130.166 23.016C130.166 23.7627 130.395 24.3707 130.854 24.84C131.323 25.3093 131.926 25.544 132.662 25.544ZM147.11 22.776C147.11 22.9147 147.099 23.112 147.078 23.368H140.374C140.491 23.9973 140.795 24.4987 141.286 24.872C141.787 25.2347 142.406 25.416 143.142 25.416C144.08 25.416 144.854 25.1067 145.462 24.488L146.534 25.72C146.15 26.1787 145.664 26.5253 145.078 26.76C144.491 26.9947 143.83 27.112 143.094 27.112C142.155 27.112 141.328 26.9253 140.614 26.552C139.899 26.1787 139.344 25.6613 138.95 25C138.566 24.328 138.374 23.5707 138.374 22.728C138.374 21.896 138.56 21.1493 138.934 20.488C139.318 19.816 139.846 19.2933 140.518 18.92C141.19 18.5467 141.947 18.36 142.79 18.36C143.622 18.36 144.363 18.5467 145.014 18.92C145.675 19.2827 146.187 19.8 146.55 20.472C146.923 21.1333 147.11 21.9013 147.11 22.776ZM142.79 19.96C142.15 19.96 141.606 20.152 141.158 20.536C140.72 20.9093 140.454 21.4107 140.358 22.04H145.206C145.12 21.4213 144.859 20.92 144.422 20.536C143.984 20.152 143.44 19.96 142.79 19.96ZM154.245 22.552C154.778 22.7013 155.189 22.9467 155.477 23.288C155.776 23.6187 155.925 24.0187 155.925 24.488C155.925 25.0107 155.749 25.4747 155.397 25.88C155.045 26.2747 154.56 26.584 153.941 26.808C153.322 27.032 152.618 27.144 151.829 27.144C151.168 27.144 150.522 27.0693 149.893 26.92C149.264 26.76 148.693 26.536 148.181 26.248L148.757 24.76C149.173 24.9947 149.642 25.176 150.165 25.304C150.688 25.432 151.21 25.496 151.733 25.496C152.405 25.496 152.928 25.3947 153.301 25.192C153.685 24.9787 153.877 24.6907 153.877 24.328C153.877 23.9973 153.728 23.7413 153.429 23.56C153.141 23.3787 152.73 23.288 152.197 23.288H150.533V21.944H152.037C152.538 21.944 152.928 21.8587 153.205 21.688C153.493 21.5173 153.637 21.2773 153.637 20.968C153.637 20.6587 153.466 20.4133 153.125 20.232C152.784 20.0507 152.314 19.96 151.717 19.96C150.864 19.96 149.962 20.168 149.013 20.584L148.501 19.112C149.621 18.5893 150.752 18.328 151.893 18.328C152.618 18.328 153.269 18.4293 153.845 18.632C154.421 18.824 154.869 19.1013 155.189 19.464C155.52 19.816 155.685 20.2213 155.685 20.68C155.685 21.096 155.557 21.4693 155.301 21.8C155.045 22.12 154.693 22.3707 154.245 22.552ZM53.2391 40.456V49H51.2551V42.152H47.0471V49H45.0471V40.456H53.2391ZM59.7458 49.112C58.8818 49.112 58.1031 48.9253 57.4098 48.552C56.7164 48.1787 56.1724 47.6613 55.7778 47C55.3938 46.328 55.2018 45.5707 55.2018 44.728C55.2018 43.8853 55.3938 43.1333 55.7778 42.472C56.1724 41.8107 56.7164 41.2933 57.4098 40.92C58.1031 40.5467 58.8818 40.36 59.7458 40.36C60.6204 40.36 61.4044 40.5467 62.0978 40.92C62.7911 41.2933 63.3298 41.8107 63.7138 42.472C64.1084 43.1333 64.3058 43.8853 64.3058 44.728C64.3058 45.5707 64.1084 46.328 63.7138 47C63.3298 47.6613 62.7911 48.1787 62.0978 48.552C61.4044 48.9253 60.6204 49.112 59.7458 49.112ZM59.7458 47.4C60.4818 47.4 61.0898 47.1547 61.5698 46.664C62.0498 46.1733 62.2898 45.528 62.2898 44.728C62.2898 43.928 62.0498 43.2827 61.5698 42.792C61.0898 42.3013 60.4818 42.056 59.7458 42.056C59.0098 42.056 58.4018 42.3013 57.9218 42.792C57.4524 43.2827 57.2178 43.928 57.2178 44.728C57.2178 45.528 57.4524 46.1733 57.9218 46.664C58.4018 47.1547 59.0098 47.4 59.7458 47.4ZM75.3078 47.304V50.904H73.4358V49H66.8438V50.904H64.9878V47.304H65.3878C65.9318 47.2827 66.2998 46.936 66.4918 46.264C66.6944 45.5813 66.8278 44.6213 66.8918 43.384L67.0038 40.456H74.0438V47.304H75.3078ZM68.7158 43.528C68.6731 44.5093 68.5931 45.3093 68.4758 45.928C68.3584 46.5467 68.1451 47.0053 67.8358 47.304H72.0438V42.152H68.7638L68.7158 43.528ZM85.286 40.456V49H83.302V42.152H79.094V49H77.094V40.456H85.286ZM87.9846 40.456H89.9846V46.088L94.7046 40.456H96.5286V49H94.5286V43.368L89.8246 49H87.9846V40.456ZM103.107 49.112C102.222 49.112 101.427 48.9253 100.723 48.552C100.019 48.1787 99.4697 47.6613 99.075 47C98.6803 46.328 98.483 45.5707 98.483 44.728C98.483 43.8853 98.6803 43.1333 99.075 42.472C99.4697 41.8107 100.014 41.2933 100.707 40.92C101.411 40.5467 102.211 40.36 103.107 40.36C103.95 40.36 104.686 40.5307 105.315 40.872C105.955 41.2133 106.435 41.704 106.755 42.344L105.219 43.24C104.974 42.8453 104.664 42.552 104.291 42.36C103.928 42.1573 103.528 42.056 103.091 42.056C102.344 42.056 101.726 42.3013 101.235 42.792C100.744 43.272 100.499 43.9173 100.499 44.728C100.499 45.5387 100.739 46.1893 101.219 46.68C101.71 47.16 102.334 47.4 103.091 47.4C103.528 47.4 103.928 47.304 104.291 47.112C104.664 46.9093 104.974 46.6107 105.219 46.216L106.755 47.112C106.424 47.752 105.939 48.248 105.299 48.6C104.67 48.9413 103.939 49.112 103.107 49.112ZM112.068 45.576H110.516V49H108.516V40.456H110.516V43.912H112.116L114.644 40.456H116.788L113.684 44.568L116.996 49H114.644L112.068 45.576ZM118.407 40.456H120.407V46.088L125.127 40.456H126.951V49H124.951V43.368L120.247 49H118.407V40.456Z" fill="white"/>
<defs>
<linearGradient id="paint0_linear_13798_9192" x1="172" y1="-1.43858e-05" x2="-3.70393" y2="62.6073" gradientUnits="userSpaceOnUse">
<stop stop-color="#00DB59"/>
<stop offset="1" stop-color="#1DCCFD"/>
</linearGradient>
</defs>
</svg>
