
<svg width="130" height="74" viewBox="0 0 130 74" fill="none" xmlns="http://www.w3.org/2000/svg">
<path fill-rule="evenodd" clip-rule="evenodd" d="M8 0C3.58172 0 0 3.58172 0 8V56C0 60.4183 3.58172 64 8 64V64C9.28601 64 10.096 65.3849 9.4655 66.5058L8.34792 68.4926C6.84805 71.159 9.81482 74.1058 12.4711 72.588L25.8249 64.9572C26.9226 64.3299 28.165 64 29.4294 64H122C126.418 64 130 60.4183 130 56V8C130 3.58172 126.418 0 122 0H8Z" fill="url(#paint0_linear_14167_7682)"/>
<path d="M33.9322 27V17.2H38.5242C39.7002 17.2 40.5962 17.4333 41.2122 17.9C41.8282 18.3573 42.1362 18.9733 42.1362 19.748C42.1362 20.2707 42.0149 20.7187 41.7722 21.092C41.5295 21.456 41.2029 21.7407 40.7922 21.946C40.3909 22.142 39.9522 22.24 39.4762 22.24L39.7282 21.736C40.2789 21.736 40.7735 21.8387 41.2122 22.044C41.6509 22.24 41.9962 22.5293 42.2482 22.912C42.5095 23.2947 42.6402 23.7707 42.6402 24.34C42.6402 25.18 42.3182 25.8333 41.6742 26.3C41.0302 26.7667 40.0735 27 38.8042 27H33.9322ZM35.7522 25.572H38.6922C39.3735 25.572 39.8962 25.46 40.2602 25.236C40.6242 25.012 40.8062 24.6527 40.8062 24.158C40.8062 23.6727 40.6242 23.318 40.2602 23.094C39.8962 22.8607 39.3735 22.744 38.6922 22.744H35.6122V21.33H38.3282C38.9629 21.33 39.4482 21.218 39.7842 20.994C40.1295 20.77 40.3022 20.434 40.3022 19.986C40.3022 19.5287 40.1295 19.188 39.7842 18.964C39.4482 18.74 38.9629 18.628 38.3282 18.628H35.7522V25.572ZM47.9286 27.098C47.0979 27.098 46.3699 26.9347 45.7446 26.608C45.1286 26.272 44.6479 25.8147 44.3026 25.236C43.9666 24.6573 43.7986 23.9993 43.7986 23.262C43.7986 22.5153 43.9619 21.8573 44.2886 21.288C44.6246 20.7093 45.0819 20.2567 45.6606 19.93C46.2486 19.6033 46.9159 19.44 47.6626 19.44C48.3906 19.44 49.0393 19.5987 49.6086 19.916C50.1779 20.2333 50.6259 20.6813 50.9526 21.26C51.2793 21.8387 51.4426 22.52 51.4426 23.304C51.4426 23.3787 51.4379 23.4627 51.4286 23.556C51.4286 23.6493 51.4239 23.738 51.4146 23.822H45.1846V22.66H50.4906L49.8046 23.024C49.8139 22.5947 49.7253 22.2167 49.5386 21.89C49.3519 21.5633 49.0953 21.3067 48.7686 21.12C48.4513 20.9333 48.0826 20.84 47.6626 20.84C47.2333 20.84 46.8553 20.9333 46.5286 21.12C46.2113 21.3067 45.9593 21.568 45.7726 21.904C45.5953 22.2307 45.5066 22.618 45.5066 23.066V23.346C45.5066 23.794 45.6093 24.1907 45.8146 24.536C46.0199 24.8813 46.3093 25.1473 46.6826 25.334C47.0559 25.5207 47.4853 25.614 47.9706 25.614C48.3906 25.614 48.7686 25.5487 49.1046 25.418C49.4406 25.2873 49.7393 25.082 50.0006 24.802L50.9386 25.88C50.6026 26.272 50.1779 26.5753 49.6646 26.79C49.1606 26.9953 48.5819 27.098 47.9286 27.098ZM57.2676 27.098C56.6609 27.098 56.1056 26.958 55.6016 26.678C55.1069 26.398 54.7103 25.978 54.4116 25.418C54.1223 24.8487 53.9776 24.13 53.9776 23.262C53.9776 22.3847 54.1176 21.666 54.3976 21.106C54.6869 20.546 55.0789 20.1307 55.5736 19.86C56.0683 19.58 56.6329 19.44 57.2676 19.44C58.0049 19.44 58.6536 19.5987 59.2136 19.916C59.7829 20.2333 60.2309 20.6767 60.5576 21.246C60.8936 21.8153 61.0616 22.4873 61.0616 23.262C61.0616 24.0367 60.8936 24.7133 60.5576 25.292C60.2309 25.8613 59.7829 26.3047 59.2136 26.622C58.6536 26.9393 58.0049 27.098 57.2676 27.098ZM53.1236 29.716V19.524H54.7896V21.288L54.7336 23.276L54.8736 25.264V29.716H53.1236ZM57.0716 25.6C57.4916 25.6 57.8649 25.5067 58.1916 25.32C58.5276 25.1333 58.7936 24.8627 58.9896 24.508C59.1856 24.1533 59.2836 23.738 59.2836 23.262C59.2836 22.7767 59.1856 22.3613 58.9896 22.016C58.7936 21.6613 58.5276 21.3907 58.1916 21.204C57.8649 21.0173 57.4916 20.924 57.0716 20.924C56.6516 20.924 56.2736 21.0173 55.9376 21.204C55.6016 21.3907 55.3356 21.6613 55.1396 22.016C54.9436 22.3613 54.8456 22.7767 54.8456 23.262C54.8456 23.738 54.9436 24.1533 55.1396 24.508C55.3356 24.8627 55.6016 25.1333 55.9376 25.32C56.2736 25.5067 56.6516 25.6 57.0716 25.6ZM65.8852 27.098C65.2506 27.098 64.6906 26.9813 64.2052 26.748C63.7199 26.5053 63.3419 26.1413 63.0712 25.656C62.8006 25.1613 62.6652 24.5407 62.6652 23.794V19.524H64.4152V23.556C64.4152 24.228 64.5646 24.732 64.8632 25.068C65.1712 25.3947 65.6052 25.558 66.1652 25.558C66.5759 25.558 66.9306 25.474 67.2292 25.306C67.5372 25.138 67.7752 24.886 67.9432 24.55C68.1206 24.214 68.2092 23.7987 68.2092 23.304V19.524H69.9592V27H68.2932V24.984L68.5872 25.6C68.3352 26.0853 67.9666 26.4587 67.4812 26.72C66.9959 26.972 66.4639 27.098 65.8852 27.098ZM72.2505 27V16.612H74.0005V27H72.2505ZM82.1546 27L78.9486 19.524H80.7686L83.5266 26.118H82.6306L85.4866 19.524H87.1666L83.9606 27H82.1546ZM92.6339 27V25.488L92.5359 25.166V22.52C92.5359 22.0067 92.3819 21.61 92.0739 21.33C91.7659 21.0407 91.2992 20.896 90.6739 20.896C90.2539 20.896 89.8385 20.9613 89.4279 21.092C89.0265 21.2227 88.6859 21.4047 88.4059 21.638L87.7199 20.364C88.1212 20.056 88.5972 19.8273 89.1479 19.678C89.7079 19.5193 90.2865 19.44 90.8839 19.44C91.9665 19.44 92.8019 19.7013 93.3899 20.224C93.9872 20.7373 94.2859 21.5353 94.2859 22.618V27H92.6339ZM90.2819 27.098C89.7219 27.098 89.2319 27.0047 88.8119 26.818C88.3919 26.622 88.0652 26.356 87.8319 26.02C87.6079 25.6747 87.4959 25.2873 87.4959 24.858C87.4959 24.438 87.5939 24.06 87.7899 23.724C87.9952 23.388 88.3265 23.122 88.7839 22.926C89.2412 22.73 89.8479 22.632 90.6039 22.632H92.7739V23.794H90.7299C90.1325 23.794 89.7312 23.892 89.5259 24.088C89.3205 24.2747 89.2179 24.508 89.2179 24.788C89.2179 25.1053 89.3439 25.3573 89.5959 25.544C89.8479 25.7307 90.1979 25.824 90.6459 25.824C91.0752 25.824 91.4579 25.726 91.7939 25.53C92.1392 25.334 92.3865 25.0447 92.5359 24.662L92.8299 25.712C92.6619 26.1507 92.3585 26.4913 91.9199 26.734C91.4905 26.9767 90.9445 27.098 90.2819 27.098ZM36.0373 47.098C35.272 47.098 34.5906 46.9347 33.9933 46.608C33.396 46.272 32.9246 45.8147 32.5793 45.236C32.234 44.6573 32.0613 43.9993 32.0613 43.262C32.0613 42.5153 32.234 41.8573 32.5793 41.288C32.9246 40.7093 33.396 40.2567 33.9933 39.93C34.5906 39.6033 35.272 39.44 36.0373 39.44C36.812 39.44 37.498 39.6033 38.0953 39.93C38.702 40.2567 39.1733 40.7047 39.5093 41.274C39.8546 41.8433 40.0273 42.506 40.0273 43.262C40.0273 43.9993 39.8546 44.6573 39.5093 45.236C39.1733 45.8147 38.702 46.272 38.0953 46.608C37.498 46.9347 36.812 47.098 36.0373 47.098ZM36.0373 45.6C36.4666 45.6 36.8493 45.5067 37.1853 45.32C37.5213 45.1333 37.7826 44.8627 37.9693 44.508C38.1653 44.1533 38.2633 43.738 38.2633 43.262C38.2633 42.7767 38.1653 42.3613 37.9693 42.016C37.7826 41.6613 37.5213 41.3907 37.1853 41.204C36.8493 41.0173 36.4713 40.924 36.0513 40.924C35.622 40.924 35.2393 41.0173 34.9033 41.204C34.5766 41.3907 34.3153 41.6613 34.1193 42.016C33.9233 42.3613 33.8253 42.7767 33.8253 43.262C33.8253 43.738 33.9233 44.1533 34.1193 44.508C34.3153 44.8627 34.5766 45.1333 34.9033 45.32C35.2393 45.5067 35.6173 45.6 36.0373 45.6ZM45.8447 47.098C45.2101 47.098 44.6454 46.958 44.1507 46.678C43.6561 46.398 43.2641 45.978 42.9747 45.418C42.6947 44.8487 42.5547 44.13 42.5547 43.262C42.5547 42.3847 42.6994 41.666 42.9887 41.106C43.2874 40.546 43.6841 40.1307 44.1787 39.86C44.6827 39.58 45.2381 39.44 45.8447 39.44C46.5821 39.44 47.2307 39.5987 47.7907 39.916C48.3601 40.2333 48.8081 40.6767 49.1347 41.246C49.4707 41.8153 49.6387 42.4873 49.6387 43.262C49.6387 44.0367 49.4707 44.7087 49.1347 45.278C48.8081 45.8473 48.3601 46.2953 47.7907 46.622C47.2307 46.9393 46.5821 47.098 45.8447 47.098ZM41.7007 47V36.612H43.4507V41.26L43.3107 43.248L43.3667 45.236V47H41.7007ZM45.6487 45.6C46.0687 45.6 46.4421 45.5067 46.7687 45.32C47.1047 45.1333 47.3707 44.8627 47.5667 44.508C47.7627 44.1533 47.8607 43.738 47.8607 43.262C47.8607 42.7767 47.7627 42.3613 47.5667 42.016C47.3707 41.6613 47.1047 41.3907 46.7687 41.204C46.4421 41.0173 46.0687 40.924 45.6487 40.924C45.2287 40.924 44.8507 41.0173 44.5147 41.204C44.1787 41.3907 43.9127 41.6613 43.7167 42.016C43.5207 42.3613 43.4227 42.7767 43.4227 43.262C43.4227 43.738 43.5207 44.1533 43.7167 44.508C43.9127 44.8627 44.1787 45.1333 44.5147 45.32C44.8507 45.5067 45.2287 45.6 45.6487 45.6ZM54.4624 47.098C53.8277 47.098 53.2677 46.9813 52.7824 46.748C52.2971 46.5053 51.9191 46.1413 51.6484 45.656C51.3777 45.1613 51.2424 44.5407 51.2424 43.794V39.524H52.9924V43.556C52.9924 44.228 53.1417 44.732 53.4404 45.068C53.7484 45.3947 54.1824 45.558 54.7424 45.558C55.1531 45.558 55.5077 45.474 55.8064 45.306C56.1144 45.138 56.3524 44.886 56.5204 44.55C56.6977 44.214 56.7864 43.7987 56.7864 43.304V39.524H58.5364V47H56.8704V44.984L57.1644 45.6C56.9124 46.0853 56.5437 46.4587 56.0584 46.72C55.5731 46.972 55.0411 47.098 54.4624 47.098ZM65.0697 39.44C65.667 39.44 66.199 39.5567 66.6657 39.79C67.1417 40.0233 67.515 40.3827 67.7857 40.868C68.0564 41.344 68.1917 41.96 68.1917 42.716V47H66.4417V42.94C66.4417 42.2773 66.283 41.7827 65.9657 41.456C65.6577 41.1293 65.2237 40.966 64.6637 40.966C64.253 40.966 63.889 41.05 63.5717 41.218C63.2544 41.386 63.007 41.638 62.8297 41.974C62.6617 42.3007 62.5777 42.716 62.5777 43.22V47H60.8277V39.524H62.4937V41.54L62.1997 40.924C62.461 40.448 62.839 40.084 63.3337 39.832C63.8377 39.5707 64.4164 39.44 65.0697 39.44ZM75.0177 47V45.488L74.9197 45.166V42.52C74.9197 42.0067 74.7657 41.61 74.4577 41.33C74.1497 41.0407 73.683 40.896 73.0577 40.896C72.6377 40.896 72.2223 40.9613 71.8117 41.092C71.4103 41.2227 71.0697 41.4047 70.7897 41.638L70.1037 40.364C70.505 40.056 70.981 39.8273 71.5317 39.678C72.0917 39.5193 72.6703 39.44 73.2677 39.44C74.3503 39.44 75.1857 39.7013 75.7737 40.224C76.371 40.7373 76.6697 41.5353 76.6697 42.618V47H75.0177ZM72.6657 47.098C72.1057 47.098 71.6157 47.0047 71.1957 46.818C70.7757 46.622 70.449 46.356 70.2157 46.02C69.9917 45.6747 69.8797 45.2873 69.8797 44.858C69.8797 44.438 69.9777 44.06 70.1737 43.724C70.379 43.388 70.7103 43.122 71.1677 42.926C71.625 42.73 72.2317 42.632 72.9877 42.632H75.1577V43.794H73.1137C72.5163 43.794 72.115 43.892 71.9097 44.088C71.7043 44.2747 71.6017 44.508 71.6017 44.788C71.6017 45.1053 71.7277 45.3573 71.9797 45.544C72.2317 45.7307 72.5817 45.824 73.0297 45.824C73.459 45.824 73.8417 45.726 74.1777 45.53C74.523 45.334 74.7703 45.0447 74.9197 44.662L75.2137 45.712C75.0457 46.1507 74.7423 46.4913 74.3037 46.734C73.8743 46.9767 73.3283 47.098 72.6657 47.098ZM81.2256 47.098C80.6002 47.098 79.9982 47.0187 79.4196 46.86C78.8502 46.692 78.3976 46.4913 78.0616 46.258L78.7336 44.928C79.0696 45.1427 79.4709 45.32 79.9376 45.46C80.4042 45.6 80.8709 45.67 81.3376 45.67C81.8882 45.67 82.2849 45.5953 82.5276 45.446C82.7796 45.2967 82.9056 45.096 82.9056 44.844C82.9056 44.6387 82.8216 44.4847 82.6536 44.382C82.4856 44.27 82.2662 44.186 81.9956 44.13C81.7249 44.074 81.4216 44.0227 81.0856 43.976C80.7589 43.9293 80.4276 43.8687 80.0916 43.794C79.7649 43.71 79.4662 43.5933 79.1956 43.444C78.9249 43.2853 78.7056 43.0753 78.5376 42.814C78.3696 42.5527 78.2856 42.2073 78.2856 41.778C78.2856 41.302 78.4209 40.8913 78.6916 40.546C78.9622 40.1913 79.3402 39.9207 79.8256 39.734C80.3202 39.538 80.9036 39.44 81.5756 39.44C82.0796 39.44 82.5882 39.496 83.1016 39.608C83.6149 39.72 84.0396 39.8787 84.3756 40.084L83.7036 41.414C83.3489 41.1993 82.9896 41.0547 82.6256 40.98C82.2709 40.896 81.9162 40.854 81.5616 40.854C81.0296 40.854 80.6329 40.9333 80.3716 41.092C80.1196 41.2507 79.9936 41.4513 79.9936 41.694C79.9936 41.918 80.0776 42.086 80.2456 42.198C80.4136 42.31 80.6329 42.3987 80.9036 42.464C81.1742 42.5293 81.4729 42.5853 81.7996 42.632C82.1356 42.6693 82.4669 42.73 82.7936 42.814C83.1202 42.898 83.4189 43.0147 83.6896 43.164C83.9696 43.304 84.1936 43.5047 84.3616 43.766C84.5296 44.0273 84.6136 44.368 84.6136 44.788C84.6136 45.2547 84.4736 45.6607 84.1936 46.006C83.9229 46.3513 83.5356 46.622 83.0316 46.818C82.5276 47.0047 81.9256 47.098 81.2256 47.098ZM86.1207 47V39.524H87.8707V47H86.1207ZM87.0027 38.292C86.676 38.292 86.4053 38.1893 86.1907 37.984C85.9853 37.7787 85.8827 37.5313 85.8827 37.242C85.8827 36.9433 85.9853 36.696 86.1907 36.5C86.4053 36.2947 86.676 36.192 87.0027 36.192C87.3293 36.192 87.5953 36.29 87.8007 36.486C88.0153 36.6727 88.1227 36.9107 88.1227 37.2C88.1227 37.508 88.02 37.7693 87.8147 37.984C87.6093 38.1893 87.3387 38.292 87.0027 38.292ZM89.5515 47V45.894L94.1575 40.322L94.4795 40.924H89.6355V39.524H95.8795V40.63L91.2735 46.202L90.9235 45.6H96.0055V47H89.5515Z" fill="white"/>
<defs>
<linearGradient id="paint0_linear_14167_7682" x1="172" y1="-1.42355e-05" x2="-3.70393" y2="62.6073" gradientUnits="userSpaceOnUse">
<stop stop-color="#00DB59"/>
<stop offset="1" stop-color="#1DCCFD"/>
</linearGradient>
</defs>
</svg>
