<svg width="172" height="74" viewBox="0 0 172 74" fill="none" xmlns="http://www.w3.org/2000/svg">
<path fill-rule="evenodd" clip-rule="evenodd" d="M8 0C3.58172 0 0 3.58172 0 8V56C0 60.4183 3.58173 64 8 64C9.28601 64 10.096 65.3849 9.4655 66.5058L8.34792 68.4926C6.84805 71.159 9.81482 74.1058 12.4711 72.588L25.8249 64.9572C26.9226 64.3299 28.165 64 29.4294 64H164C168.418 64 172 60.4183 172 56V8C172 3.58172 168.418 0 164 0H8Z" fill="url(#paint0_linear_14167_7687)"/>
<path d="M51.6368 26V14.8H56.8848C58.2288 14.8 59.2528 15.0667 59.9568 15.6C60.6608 16.1227 61.0128 16.8267 61.0128 17.712C61.0128 18.3093 60.8741 18.8213 60.5968 19.248C60.3195 19.664 59.9461 19.9893 59.4768 20.224C59.0181 20.448 58.5168 20.56 57.9728 20.56L58.2608 19.984C58.8901 19.984 59.4555 20.1013 59.9568 20.336C60.4581 20.56 60.8528 20.8907 61.1408 21.328C61.4395 21.7653 61.5888 22.3093 61.5888 22.96C61.5888 23.92 61.2208 24.6667 60.4848 25.2C59.7488 25.7333 58.6555 26 57.2048 26H51.6368ZM53.7168 24.368H57.0768C57.8555 24.368 58.4528 24.24 58.8688 23.984C59.2848 23.728 59.4928 23.3173 59.4928 22.752C59.4928 22.1973 59.2848 21.792 58.8688 21.536C58.4528 21.2693 57.8555 21.136 57.0768 21.136H53.5568V19.52H56.6608C57.3861 19.52 57.9408 19.392 58.3248 19.136C58.7195 18.88 58.9168 18.496 58.9168 17.984C58.9168 17.4613 58.7195 17.072 58.3248 16.816C57.9408 16.56 57.3861 16.432 56.6608 16.432H53.7168V24.368ZM67.6327 26.112C66.6834 26.112 65.8514 25.9253 65.1367 25.552C64.4327 25.168 63.8834 24.6453 63.4887 23.984C63.1047 23.3227 62.9127 22.5707 62.9127 21.728C62.9127 20.8747 63.0994 20.1227 63.4727 19.472C63.8567 18.8107 64.3794 18.2933 65.0407 17.92C65.7127 17.5467 66.4754 17.36 67.3287 17.36C68.1607 17.36 68.902 17.5413 69.5527 17.904C70.2034 18.2667 70.7154 18.7787 71.0887 19.44C71.462 20.1013 71.6487 20.88 71.6487 21.776C71.6487 21.8613 71.6434 21.9573 71.6327 22.064C71.6327 22.1707 71.6274 22.272 71.6167 22.368H64.4967V21.04H70.5607L69.7767 21.456C69.7874 20.9653 69.686 20.5333 69.4727 20.16C69.2594 19.7867 68.966 19.4933 68.5927 19.28C68.23 19.0667 67.8087 18.96 67.3287 18.96C66.838 18.96 66.406 19.0667 66.0327 19.28C65.67 19.4933 65.382 19.792 65.1687 20.176C64.966 20.5493 64.8647 20.992 64.8647 21.504V21.824C64.8647 22.336 64.982 22.7893 65.2167 23.184C65.4514 23.5787 65.782 23.8827 66.2087 24.096C66.6354 24.3093 67.126 24.416 67.6807 24.416C68.1607 24.416 68.5927 24.3413 68.9767 24.192C69.3607 24.0427 69.702 23.808 70.0007 23.488L71.0727 24.72C70.6887 25.168 70.2034 25.5147 69.6167 25.76C69.0407 25.9947 68.3794 26.112 67.6327 26.112ZM78.3058 26.112C77.6125 26.112 76.9778 25.952 76.4018 25.632C75.8365 25.312 75.3831 24.832 75.0418 24.192C74.7111 23.5413 74.5458 22.72 74.5458 21.728C74.5458 20.7253 74.7058 19.904 75.0258 19.264C75.3565 18.624 75.8045 18.1493 76.3698 17.84C76.9351 17.52 77.5805 17.36 78.3058 17.36C79.1485 17.36 79.8898 17.5413 80.5298 17.904C81.1805 18.2667 81.6925 18.7733 82.0658 19.424C82.4498 20.0747 82.6418 20.8427 82.6418 21.728C82.6418 22.6133 82.4498 23.3867 82.0658 24.048C81.6925 24.6987 81.1805 25.2053 80.5298 25.568C79.8898 25.9307 79.1485 26.112 78.3058 26.112ZM73.5698 29.104V17.456H75.4738V19.472L75.4098 21.744L75.5698 24.016V29.104H73.5698ZM78.0818 24.4C78.5618 24.4 78.9885 24.2933 79.3618 24.08C79.7458 23.8667 80.0498 23.5573 80.2738 23.152C80.4978 22.7467 80.6098 22.272 80.6098 21.728C80.6098 21.1733 80.4978 20.6987 80.2738 20.304C80.0498 19.8987 79.7458 19.5893 79.3618 19.376C78.9885 19.1627 78.5618 19.056 78.0818 19.056C77.6018 19.056 77.1698 19.1627 76.7858 19.376C76.4018 19.5893 76.0978 19.8987 75.8738 20.304C75.6498 20.6987 75.5378 21.1733 75.5378 21.728C75.5378 22.272 75.6498 22.7467 75.8738 23.152C76.0978 23.5573 76.4018 23.8667 76.7858 24.08C77.1698 24.2933 77.6018 24.4 78.0818 24.4ZM88.1546 26.112C87.4292 26.112 86.7892 25.9787 86.2346 25.712C85.6799 25.4347 85.2479 25.0187 84.9386 24.464C84.6292 23.8987 84.4746 23.1893 84.4746 22.336V17.456H86.4746V22.064C86.4746 22.832 86.6452 23.408 86.9866 23.792C87.3386 24.1653 87.8346 24.352 88.4746 24.352C88.9439 24.352 89.3492 24.256 89.6906 24.064C90.0426 23.872 90.3146 23.584 90.5066 23.2C90.7092 22.816 90.8106 22.3413 90.8106 21.776V17.456H92.8106V26H90.9066V23.696L91.2426 24.4C90.9546 24.9547 90.5332 25.3813 89.9786 25.68C89.4239 25.968 88.8159 26.112 88.1546 26.112ZM95.4292 26V14.128H97.4292V26H95.4292ZM106.748 26L103.084 17.456H105.164L108.316 24.992H107.292L110.556 17.456H112.476L108.812 26H106.748ZM118.724 26V24.272L118.612 23.904V20.88C118.612 20.2933 118.436 19.84 118.084 19.52C117.732 19.1893 117.199 19.024 116.484 19.024C116.004 19.024 115.53 19.0987 115.06 19.248C114.602 19.3973 114.212 19.6053 113.892 19.872L113.108 18.416C113.567 18.064 114.111 17.8027 114.74 17.632C115.38 17.4507 116.042 17.36 116.724 17.36C117.962 17.36 118.916 17.6587 119.588 18.256C120.271 18.8427 120.612 19.7547 120.612 20.992V26H118.724ZM116.036 26.112C115.396 26.112 114.836 26.0053 114.356 25.792C113.876 25.568 113.503 25.264 113.236 24.88C112.98 24.4853 112.852 24.0427 112.852 23.552C112.852 23.072 112.964 22.64 113.188 22.256C113.423 21.872 113.802 21.568 114.324 21.344C114.847 21.12 115.54 21.008 116.404 21.008H118.884V22.336H116.548C115.866 22.336 115.407 22.448 115.172 22.672C114.938 22.8853 114.82 23.152 114.82 23.472C114.82 23.8347 114.964 24.1227 115.252 24.336C115.54 24.5493 115.94 24.656 116.452 24.656C116.943 24.656 117.38 24.544 117.764 24.32C118.159 24.096 118.442 23.7653 118.612 23.328L118.948 24.528C118.756 25.0293 118.41 25.4187 117.908 25.696C117.418 25.9733 116.794 26.112 116.036 26.112ZM54.0426 50.112C53.168 50.112 52.3893 49.9253 51.7066 49.552C51.024 49.168 50.4853 48.6453 50.0906 47.984C49.696 47.3227 49.4986 46.5707 49.4986 45.728C49.4986 44.8747 49.696 44.1227 50.0906 43.472C50.4853 42.8107 51.024 42.2933 51.7066 41.92C52.3893 41.5467 53.168 41.36 54.0426 41.36C54.928 41.36 55.712 41.5467 56.3946 41.92C57.088 42.2933 57.6266 42.8053 58.0106 43.456C58.4053 44.1067 58.6026 44.864 58.6026 45.728C58.6026 46.5707 58.4053 47.3227 58.0106 47.984C57.6266 48.6453 57.088 49.168 56.3946 49.552C55.712 49.9253 54.928 50.112 54.0426 50.112ZM54.0426 48.4C54.5333 48.4 54.9706 48.2933 55.3546 48.08C55.7386 47.8667 56.0373 47.5573 56.2506 47.152C56.4746 46.7467 56.5866 46.272 56.5866 45.728C56.5866 45.1733 56.4746 44.6987 56.2506 44.304C56.0373 43.8987 55.7386 43.5893 55.3546 43.376C54.9706 43.1627 54.5386 43.056 54.0586 43.056C53.568 43.056 53.1306 43.1627 52.7466 43.376C52.3733 43.5893 52.0746 43.8987 51.8506 44.304C51.6266 44.6987 51.5146 45.1733 51.5146 45.728C51.5146 46.272 51.6266 46.7467 51.8506 47.152C52.0746 47.5573 52.3733 47.8667 52.7466 48.08C53.1306 48.2933 53.5626 48.4 54.0426 48.4ZM65.2511 50.112C64.5258 50.112 63.8805 49.952 63.3151 49.632C62.7498 49.312 62.3018 48.832 61.9711 48.192C61.6511 47.5413 61.4911 46.72 61.4911 45.728C61.4911 44.7253 61.6565 43.904 61.9871 43.264C62.3285 42.624 62.7818 42.1493 63.3471 41.84C63.9231 41.52 64.5578 41.36 65.2511 41.36C66.0938 41.36 66.8351 41.5413 67.4751 41.904C68.1258 42.2667 68.6378 42.7733 69.0111 43.424C69.3951 44.0747 69.5871 44.8427 69.5871 45.728C69.5871 46.6133 69.3951 47.3813 69.0111 48.032C68.6378 48.6827 68.1258 49.1947 67.4751 49.568C66.8351 49.9307 66.0938 50.112 65.2511 50.112ZM60.5151 50V38.128H62.5151V43.44L62.3551 45.712L62.4191 47.984V50H60.5151ZM65.0271 48.4C65.5071 48.4 65.9338 48.2933 66.3071 48.08C66.6911 47.8667 66.9951 47.5573 67.2191 47.152C67.4431 46.7467 67.5551 46.272 67.5551 45.728C67.5551 45.1733 67.4431 44.6987 67.2191 44.304C66.9951 43.8987 66.6911 43.5893 66.3071 43.376C65.9338 43.1627 65.5071 43.056 65.0271 43.056C64.5471 43.056 64.1151 43.1627 63.7311 43.376C63.3471 43.5893 63.0431 43.8987 62.8191 44.304C62.5951 44.6987 62.4831 45.1733 62.4831 45.728C62.4831 46.272 62.5951 46.7467 62.8191 47.152C63.0431 47.5573 63.3471 47.8667 63.7311 48.08C64.1151 48.2933 64.5471 48.4 65.0271 48.4ZM75.0999 50.112C74.3745 50.112 73.7345 49.9787 73.1799 49.712C72.6252 49.4347 72.1932 49.0187 71.8839 48.464C71.5745 47.8987 71.4199 47.1893 71.4199 46.336V41.456H73.4199V46.064C73.4199 46.832 73.5905 47.408 73.9319 47.792C74.2839 48.1653 74.7799 48.352 75.4199 48.352C75.8892 48.352 76.2945 48.256 76.6359 48.064C76.9879 47.872 77.2599 47.584 77.4519 47.2C77.6545 46.816 77.7559 46.3413 77.7559 45.776V41.456H79.7559V50H77.8519V47.696L78.1879 48.4C77.8999 48.9547 77.4785 49.3813 76.9239 49.68C76.3692 49.968 75.7612 50.112 75.0999 50.112ZM87.2225 41.36C87.9052 41.36 88.5132 41.4933 89.0465 41.76C89.5905 42.0267 90.0172 42.4373 90.3265 42.992C90.6358 43.536 90.7905 44.24 90.7905 45.104V50H88.7905V45.36C88.7905 44.6027 88.6092 44.0373 88.2465 43.664C87.8945 43.2907 87.3985 43.104 86.7585 43.104C86.2892 43.104 85.8732 43.2 85.5105 43.392C85.1478 43.584 84.8652 43.872 84.6625 44.256C84.4705 44.6293 84.3745 45.104 84.3745 45.68V50H82.3745V41.456H84.2785V43.76L83.9425 43.056C84.2412 42.512 84.6732 42.096 85.2385 41.808C85.8145 41.5093 86.4758 41.36 87.2225 41.36ZM98.5916 50V48.272L98.4796 47.904V44.88C98.4796 44.2933 98.3036 43.84 97.9516 43.52C97.5996 43.1893 97.0663 43.024 96.3516 43.024C95.8716 43.024 95.397 43.0987 94.9276 43.248C94.469 43.3973 94.0796 43.6053 93.7596 43.872L92.9756 42.416C93.4343 42.064 93.9783 41.8027 94.6076 41.632C95.2476 41.4507 95.909 41.36 96.5916 41.36C97.829 41.36 98.7836 41.6587 99.4556 42.256C100.138 42.8427 100.48 43.7547 100.48 44.992V50H98.5916ZM95.9036 50.112C95.2636 50.112 94.7036 50.0053 94.2236 49.792C93.7436 49.568 93.3703 49.264 93.1036 48.88C92.8476 48.4853 92.7196 48.0427 92.7196 47.552C92.7196 47.072 92.8316 46.64 93.0556 46.256C93.2903 45.872 93.669 45.568 94.1916 45.344C94.7143 45.12 95.4076 45.008 96.2716 45.008H98.7516V46.336H96.4156C95.733 46.336 95.2743 46.448 95.0396 46.672C94.805 46.8853 94.6876 47.152 94.6876 47.472C94.6876 47.8347 94.8316 48.1227 95.1196 48.336C95.4076 48.5493 95.8076 48.656 96.3196 48.656C96.8103 48.656 97.2476 48.544 97.6316 48.32C98.0263 48.096 98.309 47.7653 98.4796 47.328L98.8156 48.528C98.6236 49.0293 98.277 49.4187 97.7756 49.696C97.285 49.9733 96.661 50.112 95.9036 50.112ZM105.686 50.112C104.972 50.112 104.284 50.0213 103.622 49.84C102.972 49.648 102.454 49.4187 102.07 49.152L102.838 47.632C103.222 47.8773 103.681 48.08 104.214 48.24C104.748 48.4 105.281 48.48 105.814 48.48C106.444 48.48 106.897 48.3947 107.174 48.224C107.462 48.0533 107.606 47.824 107.606 47.536C107.606 47.3013 107.51 47.1253 107.318 47.008C107.126 46.88 106.876 46.784 106.566 46.72C106.257 46.656 105.91 46.5973 105.526 46.544C105.153 46.4907 104.774 46.4213 104.39 46.336C104.017 46.24 103.676 46.1067 103.366 45.936C103.057 45.7547 102.806 45.5147 102.614 45.216C102.422 44.9173 102.326 44.5227 102.326 44.032C102.326 43.488 102.481 43.0187 102.79 42.624C103.1 42.2187 103.532 41.9093 104.086 41.696C104.652 41.472 105.318 41.36 106.086 41.36C106.662 41.36 107.244 41.424 107.83 41.552C108.417 41.68 108.902 41.8613 109.286 42.096L108.518 43.616C108.113 43.3707 107.702 43.2053 107.286 43.12C106.881 43.024 106.476 42.976 106.07 42.976C105.462 42.976 105.009 43.0667 104.71 43.248C104.422 43.4293 104.278 43.6587 104.278 43.936C104.278 44.192 104.374 44.384 104.566 44.512C104.758 44.64 105.009 44.7413 105.318 44.816C105.628 44.8907 105.969 44.9547 106.342 45.008C106.726 45.0507 107.105 45.12 107.478 45.216C107.852 45.312 108.193 45.4453 108.502 45.616C108.822 45.776 109.078 46.0053 109.27 46.304C109.462 46.6027 109.558 46.992 109.558 47.472C109.558 48.0053 109.398 48.4693 109.078 48.864C108.769 49.2587 108.326 49.568 107.75 49.792C107.174 50.0053 106.486 50.112 105.686 50.112ZM111.281 50V41.456H113.281V50H111.281ZM112.289 40.048C111.915 40.048 111.606 39.9307 111.361 39.696C111.126 39.4613 111.009 39.1787 111.009 38.848C111.009 38.5067 111.126 38.224 111.361 38C111.606 37.7653 111.915 37.648 112.289 37.648C112.662 37.648 112.966 37.76 113.201 37.984C113.446 38.1973 113.569 38.4693 113.569 38.8C113.569 39.152 113.451 39.4507 113.217 39.696C112.982 39.9307 112.673 40.048 112.289 40.048ZM115.202 50V48.736L120.466 42.368L120.834 43.056H115.298V41.456H122.434V42.72L117.17 49.088L116.77 48.4H122.578V50H115.202Z" fill="white"/>
<defs>
<linearGradient id="paint0_linear_14167_7687" x1="172" y1="-1.43858e-05" x2="-3.70393" y2="62.6073" gradientUnits="userSpaceOnUse">
<stop stop-color="#00DB59"/>
<stop offset="1" stop-color="#1DCCFD"/>
</linearGradient>
</defs>
</svg>
