<svg width="130" height="74" viewBox="0 0 130 74" fill="none" xmlns="http://www.w3.org/2000/svg">
<path fill-rule="evenodd" clip-rule="evenodd" d="M8 0C3.58172 0 0 3.58172 0 8V56C0 60.4183 3.58172 64 8 64C9.28601 64 10.096 65.3849 9.4655 66.5058L8.34792 68.4926C6.84805 71.159 9.81482 74.1058 12.4711 72.588L25.8249 64.9572C26.9226 64.3299 28.165 64 29.4294 64H122C126.418 64 130 60.4183 130 56V8C130 3.58172 126.418 0 122 0H8Z" fill="url(#paint0_linear_13818_7936)"/>
<path d="M18.4299 17.2H26.0599V18.698H20.2219V21.106H23.1199C24.2959 21.106 25.1873 21.3533 25.7939 21.848C26.4099 22.3333 26.7179 23.038 26.7179 23.962C26.7179 24.9327 26.3819 25.684 25.7099 26.216C25.0379 26.7387 24.0813 27 22.8399 27H18.4299V17.2ZM22.7419 25.6C23.4419 25.6 23.9739 25.4647 24.3379 25.194C24.7019 24.9233 24.8839 24.5313 24.8839 24.018C24.8839 23.01 24.1699 22.506 22.7419 22.506H20.2219V25.6H22.7419ZM35.5149 23.304C35.5149 23.4253 35.5055 23.598 35.4869 23.822H29.6209C29.7235 24.3727 29.9895 24.8113 30.4189 25.138C30.8575 25.4553 31.3989 25.614 32.0429 25.614C32.8642 25.614 33.5409 25.3433 34.0729 24.802L35.0109 25.88C34.6749 26.2813 34.2502 26.5847 33.7369 26.79C33.2235 26.9953 32.6449 27.098 32.0009 27.098C31.1795 27.098 30.4562 26.9347 29.8309 26.608C29.2055 26.2813 28.7202 25.8287 28.3749 25.25C28.0389 24.662 27.8709 23.9993 27.8709 23.262C27.8709 22.534 28.0342 21.8807 28.3609 21.302C28.6969 20.714 29.1589 20.2567 29.7469 19.93C30.3349 19.6033 30.9975 19.44 31.7349 19.44C32.4629 19.44 33.1115 19.6033 33.6809 19.93C34.2595 20.2473 34.7075 20.7 35.0249 21.288C35.3515 21.8667 35.5149 22.5387 35.5149 23.304ZM31.7349 20.84C31.1749 20.84 30.6989 21.008 30.3069 21.344C29.9242 21.6707 29.6909 22.1093 29.6069 22.66H33.8489C33.7742 22.1187 33.5455 21.68 33.1629 21.344C32.7802 21.008 32.3042 20.84 31.7349 20.84ZM40.8309 27.098C40.0563 27.098 39.3609 26.9347 38.7449 26.608C38.1289 26.2813 37.6483 25.8287 37.3029 25.25C36.9576 24.662 36.7849 23.9993 36.7849 23.262C36.7849 22.5247 36.9576 21.8667 37.3029 21.288C37.6483 20.7093 38.1243 20.2567 38.7309 19.93C39.3469 19.6033 40.0469 19.44 40.8309 19.44C41.5683 19.44 42.2123 19.5893 42.7629 19.888C43.3229 20.1867 43.7429 20.616 44.0229 21.176L42.6789 21.96C42.4643 21.6147 42.1936 21.358 41.8669 21.19C41.5496 21.0127 41.1996 20.924 40.8169 20.924C40.1636 20.924 39.6223 21.1387 39.1929 21.568C38.7636 21.988 38.5489 22.5527 38.5489 23.262C38.5489 23.9713 38.7589 24.5407 39.1789 24.97C39.6083 25.39 40.1543 25.6 40.8169 25.6C41.1996 25.6 41.5496 25.516 41.8669 25.348C42.1936 25.1707 42.4643 24.9093 42.6789 24.564L44.0229 25.348C43.7336 25.908 43.3089 26.342 42.7489 26.65C42.1983 26.9487 41.5589 27.098 40.8309 27.098ZM52.7317 19.524V27H50.9957V21.008H47.3137V27H45.5637V19.524H52.7317ZM61.869 19.524V27H60.119V21.008H57.319L57.249 22.492C57.2023 23.4813 57.109 24.312 56.969 24.984C56.8383 25.6467 56.6097 26.174 56.283 26.566C55.9657 26.9487 55.527 27.14 54.967 27.14C54.7057 27.14 54.3837 27.0887 54.001 26.986L54.085 25.516C54.2157 25.544 54.3277 25.558 54.421 25.558C54.7757 25.558 55.0417 25.418 55.219 25.138C55.3963 24.8487 55.5083 24.508 55.555 24.116C55.611 23.7147 55.6577 23.1453 55.695 22.408L55.821 19.524H61.869ZM67.0118 19.44C68.1131 19.44 68.9531 19.706 69.5318 20.238C70.1198 20.7607 70.4138 21.554 70.4138 22.618V27H68.7618V26.09C68.5471 26.4167 68.2391 26.6687 67.8378 26.846C67.4458 27.014 66.9698 27.098 66.4098 27.098C65.8498 27.098 65.3598 27.0047 64.9398 26.818C64.5198 26.622 64.1931 26.356 63.9598 26.02C63.7358 25.6747 63.6238 25.2873 63.6238 24.858C63.6238 24.186 63.8711 23.6493 64.3658 23.248C64.8698 22.8373 65.6585 22.632 66.7318 22.632H68.6638V22.52C68.6638 21.9973 68.5051 21.596 68.1878 21.316C67.8798 21.036 67.4178 20.896 66.8018 20.896C66.3818 20.896 65.9665 20.9613 65.5558 21.092C65.1545 21.2227 64.8138 21.4047 64.5338 21.638L63.8478 20.364C64.2398 20.0653 64.7111 19.8367 65.2618 19.678C65.8125 19.5193 66.3958 19.44 67.0118 19.44ZM66.7738 25.824C67.2125 25.824 67.5998 25.726 67.9358 25.53C68.2811 25.3247 68.5238 25.0353 68.6638 24.662V23.794H66.8578C65.8498 23.794 65.3458 24.1253 65.3458 24.788C65.3458 25.1053 65.4718 25.3573 65.7238 25.544C65.9758 25.7307 66.3258 25.824 66.7738 25.824ZM78.5013 21.008H75.8833V27H74.1333V21.008H71.5013V19.524H78.5013V21.008ZM79.7707 19.524H81.5207V22.562H85.2867V19.524H87.0367V27H85.2867V24.046H81.5207V27H79.7707V19.524ZM92.7141 27.098C91.9581 27.098 91.2767 26.9347 90.6701 26.608C90.0634 26.2813 89.5874 25.8287 89.2421 25.25C88.9061 24.662 88.7381 23.9993 88.7381 23.262C88.7381 22.5247 88.9061 21.8667 89.2421 21.288C89.5874 20.7093 90.0634 20.2567 90.6701 19.93C91.2767 19.6033 91.9581 19.44 92.7141 19.44C93.4794 19.44 94.1654 19.6033 94.7721 19.93C95.3787 20.2567 95.8501 20.7093 96.1861 21.288C96.5314 21.8667 96.7041 22.5247 96.7041 23.262C96.7041 23.9993 96.5314 24.662 96.1861 25.25C95.8501 25.8287 95.3787 26.2813 94.7721 26.608C94.1654 26.9347 93.4794 27.098 92.7141 27.098ZM92.7141 25.6C93.3581 25.6 93.8901 25.3853 94.3101 24.956C94.7301 24.5267 94.9401 23.962 94.9401 23.262C94.9401 22.562 94.7301 21.9973 94.3101 21.568C93.8901 21.1387 93.3581 20.924 92.7141 20.924C92.0701 20.924 91.5381 21.1387 91.1181 21.568C90.7074 21.9973 90.5021 22.562 90.5021 23.262C90.5021 23.962 90.7074 24.5267 91.1181 24.956C91.5381 25.3853 92.0701 25.6 92.7141 25.6ZM102.302 19.524H104.052V24.452L108.182 19.524H109.778V27H108.028V22.072L103.912 27H102.302V19.524ZM17.3441 39.888C18.0534 39.888 18.6787 40.042 19.2201 40.35C19.7614 40.6487 20.1814 41.0687 20.4801 41.61C20.7881 42.1513 20.9421 42.772 20.9421 43.472C20.9421 44.1907 20.7741 44.83 20.4381 45.39C20.1021 45.9407 19.6307 46.37 19.0241 46.678C18.4174 46.986 17.7267 47.14 16.9521 47.14C15.6547 47.14 14.6514 46.7107 13.9421 45.852C13.2327 44.9933 12.8781 43.7567 12.8781 42.142C12.8781 40.6393 13.2001 39.4493 13.8441 38.572C14.4881 37.6947 15.4727 37.116 16.7981 36.836L20.2701 36.094L20.5221 37.662L17.3721 38.306C16.4667 38.4927 15.7901 38.81 15.3421 39.258C14.8941 39.706 14.6327 40.336 14.5581 41.148C14.8941 40.7467 15.3001 40.4387 15.7761 40.224C16.2521 40 16.7747 39.888 17.3441 39.888ZM16.9941 45.726C17.6381 45.726 18.1561 45.5207 18.5481 45.11C18.9494 44.69 19.1501 44.158 19.1501 43.514C19.1501 42.87 18.9494 42.352 18.5481 41.96C18.1561 41.568 17.6381 41.372 16.9941 41.372C16.3407 41.372 15.8134 41.568 15.4121 41.96C15.0107 42.352 14.8101 42.87 14.8101 43.514C14.8101 44.1673 15.0107 44.6993 15.4121 45.11C15.8227 45.5207 16.3501 45.726 16.9941 45.726ZM29.636 43.304C29.636 43.4253 29.6266 43.598 29.608 43.822H23.742C23.8446 44.3727 24.1106 44.8113 24.54 45.138C24.9786 45.4553 25.52 45.614 26.164 45.614C26.9853 45.614 27.662 45.3433 28.194 44.802L29.132 45.88C28.796 46.2813 28.3713 46.5847 27.858 46.79C27.3446 46.9953 26.766 47.098 26.122 47.098C25.3006 47.098 24.5773 46.9347 23.952 46.608C23.3266 46.2813 22.8413 45.8287 22.496 45.25C22.16 44.662 21.992 43.9993 21.992 43.262C21.992 42.534 22.1553 41.8807 22.482 41.302C22.818 40.714 23.28 40.2567 23.868 39.93C24.456 39.6033 25.1186 39.44 25.856 39.44C26.584 39.44 27.2326 39.6033 27.802 39.93C28.3806 40.2473 28.8286 40.7 29.146 41.288C29.4726 41.8667 29.636 42.5387 29.636 43.304ZM25.856 40.84C25.296 40.84 24.82 41.008 24.428 41.344C24.0453 41.6707 23.812 42.1093 23.728 42.66H27.97C27.8953 42.1187 27.6666 41.68 27.284 41.344C26.9013 41.008 26.4253 40.84 25.856 40.84ZM35.8793 43.108C36.346 43.2387 36.7053 43.4533 36.9573 43.752C37.2186 44.0413 37.3493 44.3913 37.3493 44.802C37.3493 45.2593 37.1953 45.6653 36.8873 46.02C36.5793 46.3653 36.1546 46.636 35.6133 46.832C35.072 47.028 34.456 47.126 33.7653 47.126C33.1866 47.126 32.622 47.0607 32.0713 46.93C31.5206 46.79 31.0213 46.594 30.5733 46.342L31.0773 45.04C31.4413 45.2453 31.852 45.404 32.3093 45.516C32.7666 45.628 33.224 45.684 33.6813 45.684C34.2693 45.684 34.7266 45.5953 35.0533 45.418C35.3893 45.2313 35.5573 44.9793 35.5573 44.662C35.5573 44.3727 35.4266 44.1487 35.1653 43.99C34.9133 43.8313 34.554 43.752 34.0873 43.752H32.6313V42.576H33.9473C34.386 42.576 34.7266 42.5013 34.9693 42.352C35.2213 42.2027 35.3473 41.9927 35.3473 41.722C35.3473 41.4513 35.198 41.2367 34.8993 41.078C34.6006 40.9193 34.19 40.84 33.6673 40.84C32.9206 40.84 32.132 41.022 31.3013 41.386L30.8533 40.098C31.8333 39.6407 32.8226 39.412 33.8213 39.412C34.456 39.412 35.0253 39.5007 35.5293 39.678C36.0333 39.846 36.4253 40.0887 36.7053 40.406C36.9946 40.714 37.1393 41.0687 37.1393 41.47C37.1393 41.834 37.0273 42.1607 36.8033 42.45C36.5793 42.73 36.2713 42.9493 35.8793 43.108ZM50.2024 39.524V47H48.4664V41.008H44.7844V47H43.0344V39.524H50.2024ZM55.8957 47.098C55.1397 47.098 54.4584 46.9347 53.8517 46.608C53.245 46.2813 52.769 45.8287 52.4237 45.25C52.0877 44.662 51.9197 43.9993 51.9197 43.262C51.9197 42.5247 52.0877 41.8667 52.4237 41.288C52.769 40.7093 53.245 40.2567 53.8517 39.93C54.4584 39.6033 55.1397 39.44 55.8957 39.44C56.661 39.44 57.347 39.6033 57.9537 39.93C58.5604 40.2567 59.0317 40.7093 59.3677 41.288C59.713 41.8667 59.8857 42.5247 59.8857 43.262C59.8857 43.9993 59.713 44.662 59.3677 45.25C59.0317 45.8287 58.5604 46.2813 57.9537 46.608C57.347 46.9347 56.661 47.098 55.8957 47.098ZM55.8957 45.6C56.5397 45.6 57.0717 45.3853 57.4917 44.956C57.9117 44.5267 58.1217 43.962 58.1217 43.262C58.1217 42.562 57.9117 41.9973 57.4917 41.568C57.0717 41.1387 56.5397 40.924 55.8957 40.924C55.2517 40.924 54.7197 41.1387 54.2997 41.568C53.889 41.9973 53.6837 42.562 53.6837 43.262C53.6837 43.962 53.889 44.5267 54.2997 44.956C54.7197 45.3853 55.2517 45.6 55.8957 45.6ZM69.5124 45.516V48.666H67.8744V47H62.1064V48.666H60.4824V45.516H60.8324C61.3084 45.4973 61.6304 45.194 61.7984 44.606C61.9758 44.0087 62.0924 43.1687 62.1484 42.086L62.2464 39.524H68.4064V45.516H69.5124ZM63.7444 42.212C63.7071 43.0707 63.6371 43.7707 63.5344 44.312C63.4318 44.8533 63.2451 45.2547 62.9744 45.516H66.6564V41.008H63.7864L63.7444 42.212ZM78.2434 39.524V47H76.5074V41.008H72.8254V47H71.0754V39.524H78.2434ZM80.6047 39.524H82.3547V44.452L86.4847 39.524H88.0807V47H86.3307V42.072L82.2147 47H80.6047V39.524ZM93.8368 47.098C93.0621 47.098 92.3668 46.9347 91.7508 46.608C91.1348 46.2813 90.6541 45.8287 90.3088 45.25C89.9635 44.662 89.7908 43.9993 89.7908 43.262C89.7908 42.5247 89.9635 41.8667 90.3088 41.288C90.6541 40.7093 91.1301 40.2567 91.7368 39.93C92.3528 39.6033 93.0528 39.44 93.8368 39.44C94.5741 39.44 95.2181 39.5893 95.7688 39.888C96.3288 40.1867 96.7488 40.616 97.0288 41.176L95.6848 41.96C95.4701 41.6147 95.1995 41.358 94.8728 41.19C94.5555 41.0127 94.2055 40.924 93.8228 40.924C93.1695 40.924 92.6281 41.1387 92.1988 41.568C91.7695 41.988 91.5548 42.5527 91.5548 43.262C91.5548 43.9713 91.7648 44.5407 92.1848 44.97C92.6141 45.39 93.1601 45.6 93.8228 45.6C94.2055 45.6 94.5555 45.516 94.8728 45.348C95.1995 45.1707 95.4701 44.9093 95.6848 44.564L97.0288 45.348C96.7395 45.908 96.3148 46.342 95.7548 46.65C95.2041 46.9487 94.5648 47.098 93.8368 47.098ZM101.678 44.004H100.32V47H98.5696V39.524H100.32V42.548H101.72L103.932 39.524H105.808L103.092 43.122L105.99 47H103.932L101.678 44.004ZM107.224 39.524H108.974V44.452L113.104 39.524H114.7V47H112.95V42.072L108.834 47H107.224V39.524Z" fill="white"/>
<defs>
<linearGradient id="paint0_linear_13818_7936" x1="172" y1="-1.42355e-05" x2="-3.70393" y2="62.6073" gradientUnits="userSpaceOnUse">
<stop stop-color="#00DB59"/>
<stop offset="1" stop-color="#1DCCFD"/>
</linearGradient>
</defs>
</svg>
