<svg width="390" height="390" viewBox="0 0 390 390" fill="none" xmlns="http://www.w3.org/2000/svg">
<path fill-rule="evenodd" clip-rule="evenodd" d="M41 230.492V242.297C42.1379 244.757 40.7345 268.33 58.8655 287.892C72.6345 302.724 101.083 308.703 121.072 303.557C125.51 302.422 130.176 300.605 133.931 298.524C137.838 296.368 141.859 293.757 144.855 291.222C159.648 278.697 168.145 267.043 176.376 250.016C191.51 218.724 198.717 163.292 174.479 135.103C169.814 129.692 161.393 123.903 151.341 121.859C139.734 119.476 130.176 120.573 121.983 126.211C105.141 137.751 105.028 163.632 126.307 170.368C133.59 172.676 142.276 171.654 148.61 167.568C149.634 166.924 150.431 166.357 151.303 165.714C152.138 165.108 153.238 164.276 153.693 163.405C149.71 165.411 146.562 168.551 139.203 167.643C133.779 166.962 129.797 164.011 127.217 160.908C119.897 152.243 123.728 132.227 142.124 126.476C158.169 121.443 170.61 131.319 178.348 144.259C198.414 177.822 184.076 235.6 166.324 263.297C163.859 267.119 161.203 271.054 158.472 274.195C157.752 275.027 157.183 275.708 156.386 276.654C148.459 286.151 139.924 294.93 126.648 298.941C116.255 302.043 103.928 302.005 94.1034 298.411C83.9759 294.703 77.3379 289.292 72.0276 282.67C60.8759 268.708 56.4759 244 59.2069 221.978C62.1276 198.254 75.1 167.984 89.5138 148.914C91.7897 145.886 95.8483 141.459 98.4655 139.114C99.3 138.357 99.9069 137.638 100.817 136.919C101.69 136.238 102.676 135.405 103.472 134.762C106.924 131.924 110.528 129.616 114.624 127.157C131.845 116.751 153.2 112.286 173.645 122.049C182.369 126.211 188.817 132.378 193.369 139.832C204.634 158.07 201.714 182.476 196.934 203.097C194.621 213.162 191.245 222.546 188.286 232.195C185.366 241.805 182.445 251.265 179.638 261.027C177.476 268.632 172.507 284.259 173.834 292.357C175.693 303.67 182.255 309.686 195.228 307.53C205.241 305.865 212.486 300.53 218.441 292.924C230.276 277.789 237.672 263.146 246.397 245.627C250.569 237.189 254.552 228.486 258.155 219.897C259.748 216.114 267.562 196.854 268.7 192.805C268.472 195.795 267.41 200.108 266.879 203.324C266.272 206.957 265.741 210.4 265.172 214.146C261.91 236.659 259.331 261.859 262.897 284.373C265.059 298.07 269.99 311.427 276.324 321.189C281.634 329.4 291.003 337.8 300.79 340.751C302.459 341.243 304.697 341.319 306.138 342H312.586C313.421 341.584 317.252 340.978 318.769 340.487C323.472 338.897 331.172 334.546 333.334 331.292C325.672 333.07 320.286 334.205 312.131 331.708C303.521 329.059 296.466 321.946 292.103 314.492C290.434 311.616 289.259 309.346 288.045 306.092C280.762 286.908 282.355 258.568 284.441 238.438C287.4 209.795 292.71 181.832 299.5 154.173C307.617 121.103 320.779 96.8108 338.797 69.0757C340.503 66.4649 342.172 64.0054 343.841 61.6216L349 54.2811C348.583 53.6757 348.81 53.9784 348.279 53.5243L345.548 51.1405C344.297 50.0432 342.855 48.9838 342.134 48C339.062 48.9081 326.128 61.9243 306.593 61.2432C298.931 60.9784 293.962 58.2162 287.931 55.6054C277.272 51.027 258.838 47.5838 247.079 49.7027C237.786 51.4054 230.01 57.1568 225.193 64.1568C219.352 72.5946 217.038 81.0703 217.455 91.9676C217.986 91.6649 220.566 87.8054 221.134 87.0486C222.462 85.3081 223.638 84.0973 225.155 82.5459C236.345 71.1189 247.914 70.0595 264.679 72.0649C274.807 73.2757 283.19 77.0216 293.393 77.6649C301.245 78.1568 308.831 76.9459 316.19 74.827C318.352 74.2216 320.741 73.2 322.714 72.7459C322.031 74.1081 320.855 75.5459 319.907 76.8324C318.921 78.1568 318.162 79.4811 317.176 80.9189C305.872 97.3027 290.928 124.243 283.114 141.951C277.614 154.476 273.441 168.324 268.738 181.795C262.821 198.746 246.51 241.616 237.028 258.832C233.652 264.962 230.541 270.222 226.862 275.935C222.841 282.178 214.383 293.87 208.2 297.919C205.659 299.584 202.548 302.195 198.376 301.097C194.507 300.076 193.445 297.087 193.066 292.697C192.345 283.843 195 278.319 197.048 270.07C197.959 266.4 198.831 262.919 199.931 259.324C201.979 252.627 204.862 246.27 207.138 239.535C218.555 205.443 233.424 137.297 189.348 118.265C169.321 109.638 141.138 111.416 120.845 120.8C113.297 124.281 117.279 121.973 109.352 122.503C105.407 122.768 101.652 123.714 98.3517 125.076C91.8276 127.762 86.0241 132.416 82.231 136.238C77.2241 141.308 68.1207 153 64.4793 159.13C62.8103 161.93 61.1034 164.692 59.4345 167.719C51.5448 182.211 44.7172 201.735 42.2897 218.384C41.9862 220.503 41.3414 229.622 41 230.492Z" fill="black"/>
</svg>
